<svg xmlns="http://www.w3.org/2000/svg" version="1.1" xmlns:xlink="http://www.w3.org/1999/xlink" width="16" height="16"><svg xmlns="http://www.w3.org/2000/svg" version="1.1" xmlns:xlink="http://www.w3.org/1999/xlink" width="16" height="16"><svg width="16" height="16" viewBox="0 0 16 16" fill="none" xmlns="http://www.w3.org/2000/svg">
<path d="M3.3 13.68V12.108C2.548 12.044 1.956 11.804 1.524 11.388C1.1 10.964 0.88 10.408 0.864 9.72H1.944C1.944 10.112 2.06 10.432 2.292 10.68C2.532 10.928 2.868 11.08 3.3 11.136V7.992L2.976 7.896C2.376 7.712 1.912 7.404 1.584 6.972C1.264 6.54 1.104 6.032 1.104 5.448C1.104 4.808 1.3 4.28 1.692 3.864C2.092 3.448 2.628 3.208 3.3 3.144V1.56H4.02V3.132C4.684 3.196 5.216 3.436 5.616 3.852C6.016 4.268 6.22 4.804 6.228 5.46H5.148C5.148 5.084 5.048 4.78 4.848 4.548C4.656 4.308 4.38 4.16 4.02 4.104V7.08L4.5 7.236C5.084 7.42 5.536 7.732 5.856 8.172C6.176 8.612 6.336 9.128 6.336 9.72C6.336 10.376 6.124 10.92 5.7 11.352C5.284 11.784 4.724 12.036 4.02 12.108V13.68H3.3ZM4.02 11.136C4.412 11.072 4.716 10.92 4.932 10.68C5.148 10.44 5.256 10.128 5.256 9.744C5.256 9.392 5.16 9.084 4.968 8.82C4.784 8.556 4.516 8.372 4.164 8.268L4.02 8.22V11.136ZM3.3 7.332V4.104C2.948 4.16 2.672 4.296 2.472 4.512C2.28 4.728 2.184 5.008 2.184 5.352C2.184 5.768 2.312 6.12 2.568 6.408C2.824 6.688 3.192 6.864 3.672 6.936L3.3 7.332ZM7.91531 13.2V12.3H13.6753V13.2H7.91531Z" fill="white"></path>
</svg></svg><style>@media (prefers-color-scheme: light) { :root { filter: contrast(1) brightness(0.1); } }
@media (prefers-color-scheme: dark) { :root { filter: contrast(1) brightness(1); } }
</style></svg>